<svg width="16" height="16" viewBox="0 0 16 16" fill="none" xmlns="http://www.w3.org/2000/svg">
<g clip-path="url(#clip0)">
<path d="M12.3587 12.4697L15.4167 9.41232C15.7905 9.03666 16.0003 8.52827 16.0003 7.99832C16.0003 7.46837 15.7905 6.95998 15.4167 6.58432L12.3587 3.52699C12.2329 3.40555 12.0645 3.33835 11.8897 3.33987C11.7149 3.34139 11.5477 3.4115 11.4241 3.53511C11.3005 3.65871 11.2304 3.82592 11.2289 4.00072C11.2274 4.17552 11.2946 4.34392 11.416 4.46965L14.2773 7.33165H0.666667C0.489856 7.33165 0.320286 7.40189 0.195262 7.52691C0.0702379 7.65194 0 7.82151 0 7.99832C0 8.17513 0.0702379 8.3447 0.195262 8.46972C0.320286 8.59475 0.489856 8.66499 0.666667 8.66499H14.278L11.416 11.527C11.3523 11.5885 11.3015 11.662 11.2666 11.7434C11.2317 11.8247 11.2133 11.9122 11.2125 12.0007C11.2117 12.0892 11.2286 12.177 11.2621 12.259C11.2956 12.3409 11.3451 12.4153 11.4077 12.4779C11.4703 12.5405 11.5448 12.59 11.6267 12.6235C11.7086 12.6571 11.7964 12.6739 11.8849 12.6732C11.9735 12.6724 12.0609 12.654 12.1423 12.6191C12.2236 12.5841 12.2972 12.5333 12.3587 12.4697Z" fill="#FF6838"/>
</g>
<defs>
<clipPath id="clip0">
<rect width="16" height="16" fill="white"/>
</clipPath>
</defs>
</svg>
