<svg width="23" height="20" viewBox="0 0 23 20" fill="none" xmlns="http://www.w3.org/2000/svg">
<path d="M23 12H21.5848C21.4248 9.57986 20.3963 7.32639 18.647 5.59566C17.1786 4.14288 15.3378 3.19288 13.3378 2.83125C13.4553 2.57795 13.5215 2.29653 13.5215 2C13.5215 0.897222 12.6146 0 11.5 0C10.3854 0 9.47852 0.897222 9.47852 2C9.47852 2.29653 9.54467 2.57795 9.66206 2.83125C7.66216 3.19288 5.82142 4.14288 4.35286 5.59566C2.60371 7.32639 1.57507 9.57986 1.41521 12H0V13.3333H1.65L2.99766 16H9.21741L8.31897 18.6667H6.7832V20H16.2168V18.6667H14.681L13.7826 16H20.0023L21.35 13.3333H23V12ZM10.8262 2C10.8262 1.63247 11.1285 1.33333 11.5 1.33333C11.8715 1.33333 12.1738 1.63247 12.1738 2C12.1738 2.36753 11.8715 2.66667 11.5 2.66667C11.1285 2.66667 10.8262 2.36753 10.8262 2ZM11.5 4C16.1034 4 19.8888 7.53142 20.2341 12H2.76585C3.11119 7.53142 6.89656 4 11.5 4ZM13.2604 18.6667H9.73962L10.6381 16H12.3619L13.2604 18.6667ZM19.1695 14.6667H3.83047L3.15664 13.3333H19.8434L19.1695 14.6667Z" fill="black"/>
</svg>
