<svg width="24" height="24" viewBox="0 0 24 24" fill="none" xmlns="http://www.w3.org/2000/svg">
<g clip-path="url(#clip0)">
<path d="M16.9951 8.08714L16.7383 7.24194C16.4121 6.28184 15.3694 5.76799 14.4093 6.09419C13.8692 6.27769 13.445 6.70184 13.2615 7.24194L13.0047 8.08714C12.7886 8.79994 12.7433 9.55359 12.8723 10.2871C12.99 10.9047 13.3821 11.4353 13.9379 11.7291L13.6503 18.1583C13.6118 18.5172 13.7282 18.8754 13.9703 19.1431C14.491 19.7126 15.3748 19.7522 15.9443 19.2316C15.9751 19.2034 16.0046 19.1739 16.0327 19.1431C16.2694 18.883 16.3856 18.5353 16.3527 18.1851L16.0635 11.7283C16.6186 11.4344 17.01 10.9041 17.1275 10.2871C17.2566 9.55359 17.2112 8.79994 16.9951 8.08714ZM16.3395 10.1479C16.2529 10.5916 15.9367 10.9557 15.5095 11.1035C15.3474 11.1645 15.2429 11.3229 15.2507 11.4959L15.5547 18.2483C15.5687 18.3808 15.525 18.5128 15.4347 18.6107C15.1939 18.8492 14.806 18.8492 14.5651 18.6107C14.4703 18.5049 14.4273 18.3625 14.4475 18.2219L14.7491 11.4959C14.7569 11.3229 14.6525 11.1645 14.4903 11.1035C14.0631 10.9557 13.7469 10.5916 13.6603 10.1479C13.5533 9.53894 13.591 8.91329 13.7703 8.32154L14.0271 7.47594C14.2258 6.93869 14.8224 6.66424 15.3597 6.86294C15.6438 6.96799 15.8677 7.19194 15.9727 7.47594L16.2295 8.32154C16.4086 8.91334 16.4463 9.53894 16.3395 10.1479Z" fill="white"/>
<path d="M10.7999 6C10.579 6 10.3999 6.1791 10.3999 6.4V9.8344L9.31714 10.9172C9.23704 10.997 9.19444 11.1071 9.19994 11.22L9.54994 18.22C9.55829 18.371 9.50349 18.5186 9.39874 18.6276C9.17979 18.8485 8.82319 18.8501 8.60224 18.6311C8.60104 18.63 8.59989 18.6288 8.59874 18.6276C8.49394 18.5186 8.43919 18.371 8.44754 18.22L8.79994 11.22C8.80554 11.1071 8.76309 10.9971 8.68314 10.9172L7.59994 9.8344V6.4C7.59994 6.1791 7.42084 6 7.19994 6C6.97904 6 6.79994 6.1791 6.79994 6.4V10C6.79994 10.1061 6.84214 10.2078 6.91714 10.2828L7.99154 11.3576L7.65034 18.1812C7.61404 18.9266 8.18884 19.5603 8.93419 19.5966C9.67954 19.6329 10.3132 19.0581 10.3495 18.3127C10.3517 18.2689 10.3517 18.2251 10.3495 18.1813L10.0083 11.3577L11.0827 10.2829C11.1577 10.2079 11.1999 10.1062 11.1999 10.0001V6.40005C11.1999 6.1791 11.0208 6 10.7999 6Z" fill="white"/>
<path d="M8.39995 6C8.17905 6 7.99995 6.1791 7.99995 6.4V9.6C7.99995 9.8209 8.17905 10 8.39995 10C8.62084 10 8.79994 9.8209 8.79994 9.6V6.4C8.79994 6.1791 8.62084 6 8.39995 6Z" fill="white"/>
<path d="M9.59994 6C9.37904 6 9.19994 6.1791 9.19994 6.4V9.6C9.19994 9.8209 9.37904 10 9.59994 10C9.82085 10 9.99995 9.8209 9.99995 9.6V6.4C9.99995 6.1791 9.82085 6 9.59994 6Z" fill="white"/>
<path d="M12.0001 -0.05H12C5.34499 -0.05 -0.05 5.34499 -0.05 12C-0.05 18.655 5.34499 24.05 12 24.05C18.655 24.05 24.05 18.655 24.05 12V11.9999C24.0425 5.34807 18.6519 -0.0424688 12.0001 -0.05ZM11.9999 23.15C5.84198 23.15 0.85 18.158 0.85 12C0.85 5.84201 5.84201 0.85 12 0.85C18.158 0.85 23.15 5.84198 23.15 11.9999C23.143 18.155 18.155 23.143 11.9999 23.15Z" fill="white" stroke="white" stroke-width="0.1"/>
<path d="M13.2984 19.5096C13.2769 19.2898 13.0813 19.1289 12.8614 19.1504C12.8562 19.1509 12.8511 19.1515 12.8459 19.1522L12.8475 19.1518C12.2844 19.2172 11.7155 19.2172 11.1523 19.1518C10.9328 19.126 10.7341 19.2831 10.7083 19.5026C10.6826 19.7221 10.8396 19.9208 11.0591 19.9466C11.6837 20.0195 12.3146 20.0195 12.9391 19.9466C13.159 19.9252 13.3198 19.7295 13.2984 19.5096Z" fill="white"/>
<path d="M18.12 6.84584C17.978 6.67659 17.7257 6.65444 17.5565 6.79644C17.5559 6.79689 17.5554 6.79739 17.5548 6.79784C17.3859 6.94024 17.3644 7.19254 17.5068 7.36144C19.9185 10.2244 19.734 14.4579 17.0824 17.1002C16.9259 17.2562 16.9254 17.5095 17.0814 17.666C17.2373 17.8225 17.4907 17.823 17.6472 17.667C20.594 14.7314 20.7995 10.0273 18.12 6.84584Z" fill="white"/>
<path d="M13.8869 4.22323C12.3236 3.84858 10.6841 3.94928 9.17848 4.51243C8.97168 4.59018 8.86713 4.82088 8.94488 5.02763C9.00348 5.18348 9.15248 5.28663 9.31893 5.28678C9.36678 5.28653 9.41418 5.27778 9.45888 5.26083C10.8148 4.75378 12.2912 4.66323 13.6989 5.00083C13.9136 5.05273 14.1298 4.92078 14.1817 4.70603C14.2336 4.49128 14.1016 4.27513 13.8869 4.22323Z" fill="white"/>
<path d="M6.89967 17.0799C5.55122 15.7337 4.79547 13.9053 4.80007 11.9999C4.79612 10.4776 5.27832 8.99376 6.17647 7.76466C6.30922 7.58806 6.27367 7.33731 6.09707 7.20456C5.92047 7.07181 5.66972 7.10736 5.53697 7.28396C5.53462 7.28711 5.53232 7.29026 5.53007 7.29346C3.21742 10.4729 3.55772 14.8614 6.33287 17.6463C6.48927 17.8028 6.74297 17.8029 6.89947 17.6465C7.05597 17.4901 7.05607 17.2364 6.89967 17.0799Z" fill="white"/>
</g>
<defs>
<clipPath id="clip0">
<rect width="24" height="24" fill="white"/>
</clipPath>
</defs>
</svg>
