<svg width="15" height="17" viewBox="0 0 15 17" fill="none" xmlns="http://www.w3.org/2000/svg">
<path fill-rule="evenodd" clip-rule="evenodd" d="M10.4314 0.499878C12.7894 0.499878 14.3734 2.11463 14.3734 4.51763V11.4146C14.3734 13.4489 13.2922 15.4144 11.5403 16.0028C10.8596 16.2314 10.1351 15.9889 9.5152 15.6266L9.1268 15.3995C8.14115 14.8233 6.95627 14.6958 5.87058 15.0491L5.29567 15.2361C4.89602 15.3661 4.47638 15.4467 4.05971 15.3917C2.05531 15.1275 0.749695 13.5958 0.749695 11.4146V4.51763C0.749695 2.09288 2.28495 0.517128 4.66094 0.502878L10.4307 0.499878H10.4314ZM10.4314 1.62488L4.66469 1.62788C2.91869 1.63838 1.87469 2.71838 1.87469 4.51763V11.4146C1.87469 12.9977 2.67965 14.0233 4.05971 14.2566C4.47431 14.3267 4.89536 14.2411 5.29519 14.1109L5.86755 13.9246C6.95368 13.571 8.13916 13.6987 9.12514 14.2753L9.51171 14.5014C10.1314 14.8639 10.876 15.1269 11.5146 14.7988C12.6168 14.2324 13.2484 12.8135 13.2484 11.4146V4.51763C13.2484 2.70638 12.1954 1.62488 10.4314 1.62488ZM10.2868 10.6052C10.5973 10.6052 10.8493 10.8572 10.8493 11.1677C10.8493 11.4782 10.5973 11.7302 10.2868 11.7302H4.87177C4.56127 11.7302 4.30927 11.4782 4.30927 11.1677C4.30927 10.8572 4.56127 10.6052 4.87177 10.6052H10.2868ZM10.2868 7.46528C10.5973 7.46528 10.8493 7.71728 10.8493 8.02778C10.8493 8.33828 10.5973 8.59028 10.2868 8.59028H4.87177C4.56127 8.59028 4.30927 8.33828 4.30927 8.02778C4.30927 7.71728 4.56127 7.46528 4.87177 7.46528H10.2868ZM6.93779 4.33268C7.24829 4.33268 7.50029 4.58468 7.50029 4.89518C7.50029 5.20568 7.24829 5.45768 6.93779 5.45768H4.87154C4.56104 5.45768 4.30904 5.20568 4.30904 4.89518C4.30904 4.58468 4.56104 4.33268 4.87154 4.33268H6.93779Z" fill="#A8A8A8"/>
</svg>
