<svg width="24" height="24" viewBox="0 0 24 24" fill="none" xmlns="http://www.w3.org/2000/svg">
<path fill-rule="evenodd" clip-rule="evenodd" d="M17.3879 13.708C19.1039 13.708 20.4999 15.097 20.4999 16.804C20.4999 18.511 19.1039 19.9 17.3879 19.9C15.6709 19.9 14.2739 18.511 14.2739 16.804C14.2739 15.097 15.6709 13.708 17.3879 13.708ZM17.3879 15.208C16.4979 15.208 15.7739 15.924 15.7739 16.804C15.7739 17.685 16.4979 18.4 17.3879 18.4C18.2769 18.4 18.9999 17.685 18.9999 16.804C18.9999 15.924 18.2769 15.208 17.3879 15.208ZM10.0803 16.0928C10.4943 16.0928 10.8303 16.4288 10.8303 16.8428C10.8303 17.2568 10.4943 17.5928 10.0803 17.5928H3.7793C3.3653 17.5928 3.0293 17.2568 3.0293 16.8428C3.0293 16.4288 3.3653 16.0928 3.7793 16.0928H10.0803ZM6.113 4C7.83 4 9.226 5.39 9.226 7.097C9.226 8.804 7.83 10.192 6.113 10.192C4.397 10.192 3 8.804 3 7.097C3 5.39 4.397 4 6.113 4ZM6.113 5.5C5.224 5.5 4.5 6.216 4.5 7.097C4.5 7.977 5.224 8.692 6.113 8.692C7.003 8.692 7.726 7.977 7.726 7.097C7.726 6.216 7.003 5.5 6.113 5.5ZM19.1911 6.4004C19.6051 6.4004 19.9411 6.7364 19.9411 7.1504C19.9411 7.5644 19.6051 7.9004 19.1911 7.9004H12.8911C12.4771 7.9004 12.1411 7.5644 12.1411 7.1504C12.1411 6.7364 12.4771 6.4004 12.8911 6.4004H19.1911Z" fill="#E54D3A"/>
</svg>
