<svg width="20" height="20" viewBox="0 0 20 20" fill="none" xmlns="http://www.w3.org/2000/svg">
<path d="M20 10.2281C20.0008 9.54666 19.9421 8.86641 19.8243 8.19482H10.2024V12.0461H15.7134C15.6006 12.6612 15.3619 13.2475 15.0117 13.7698C14.6615 14.2921 14.207 14.7394 13.6756 15.0849V17.5848H16.9646C18.8904 15.8446 20 13.271 20 10.2281Z" fill="#4285F4"/>
<path d="M10.2023 19.9999C12.9557 19.9999 15.274 19.1138 16.9646 17.5861L13.6756 15.0862C12.7601 15.6945 11.5811 16.0417 10.2023 16.0417C7.5411 16.0417 5.28229 14.2834 4.47457 11.9141H1.08636V14.4904C1.93557 16.1465 3.23772 17.5388 4.84746 18.5117C6.45719 19.4846 8.31115 19.9998 10.2023 19.9999Z" fill="#34A853"/>
<path d="M4.47463 11.9142C4.04761 10.6726 4.04761 9.32812 4.47463 8.08656V5.51025H1.08642C0.372047 6.90348 0 8.44113 0 10.0004C0 11.5596 0.372047 13.0973 1.08642 14.4905L4.47463 11.9142Z" fill="#FBBC04"/>
<path d="M10.2023 3.95886C11.6574 3.93556 13.0633 4.47437 14.1163 5.45881L17.0283 2.60474C15.1818 0.904899 12.7355 -0.0283417 10.2023 0.000656072C8.31115 0.000740549 6.45719 0.515993 4.84746 1.48889C3.23772 2.46179 1.93557 3.85403 1.08636 5.5102L4.47457 8.08651C5.28229 5.71714 7.5411 3.95886 10.2023 3.95886Z" fill="#EA4335"/>
</svg>
