<svg width="16" height="17" viewBox="0 0 16 17" fill="none" xmlns="http://www.w3.org/2000/svg">
<path fill-rule="evenodd" clip-rule="evenodd" d="M8.78735 11.4684C9.69035 11.4684 10.4254 12.1982 10.4254 13.0952V15.4022C10.4254 15.5949 10.5799 15.7494 10.7779 15.7539H12.2074C13.3339 15.7539 14.2496 14.8494 14.2496 13.7379V7.19494C14.2444 6.81244 14.0621 6.45244 13.7494 6.21319L8.8046 2.26969C8.14085 1.74394 7.21235 1.74394 6.54635 2.27119L1.63535 6.21169C1.3106 6.45844 1.12835 6.81844 1.1246 7.20769V13.7379C1.1246 14.8494 2.04035 15.7539 3.16685 15.7539H4.60985C4.8131 15.7539 4.9781 15.5927 4.9781 15.3947C4.9781 15.3512 4.98335 15.3077 4.99235 15.2664V13.0952C4.99235 12.2034 5.72285 11.4744 6.6191 11.4684H8.78735ZM12.2074 16.8789H10.7644C9.93785 16.8594 9.30035 16.2107 9.30035 15.4022V13.0952C9.30035 12.8184 9.0701 12.5934 8.78735 12.5934H6.62285C6.3461 12.5949 6.11735 12.8207 6.11735 13.0952V15.3947C6.11735 15.4509 6.10985 15.5049 6.0941 15.5559C6.0131 16.2984 5.3786 16.8789 4.60985 16.8789H3.16685C1.4201 16.8789 -0.000396729 15.4697 -0.000396729 13.7379V7.20244C0.00710327 6.45694 0.350603 5.77444 0.943853 5.32519L5.8451 1.39144C6.92435 0.536438 8.4281 0.536438 9.5051 1.38994L14.4416 5.32744C15.0214 5.76919 15.3649 6.45019 15.3746 7.18669V13.7379C15.3746 15.4697 13.9541 16.8789 12.2074 16.8789Z" fill="#E54D3A"/>
</svg>
