<svg width="16" height="16" viewBox="0 0 16 16" fill="none" xmlns="http://www.w3.org/2000/svg">
<path fill-rule="evenodd" clip-rule="evenodd" d="M11.2505 0.500488C13.7922 0.500488 15.5 2.28399 15.5 4.93749V11.0635C15.5 13.717 13.7923 15.5005 11.2498 15.5005H4.74875C2.207 15.5005 0.5 13.717 0.5 11.0635V4.93749C0.5 2.28399 2.207 0.500488 4.74875 0.500488H11.2505ZM11.2505 1.62549H4.74875C2.85125 1.62549 1.625 2.92524 1.625 4.93749V11.0635C1.625 13.0757 2.85125 14.3755 4.74875 14.3755H11.2498C13.148 14.3755 14.375 13.0757 14.375 11.0635V4.93749C14.375 2.92524 13.148 1.62549 11.2505 1.62549ZM10.9612 7.26076C11.3759 7.26076 11.7112 7.59601 11.7112 8.01076C11.7112 8.42551 11.3759 8.76076 10.9612 8.76076C10.5464 8.76076 10.2074 8.42551 10.2074 8.01076C10.2074 7.59601 10.5396 7.26076 10.9536 7.26076H10.9612ZM7.95388 7.26076C8.36863 7.26076 8.70388 7.59601 8.70388 8.01076C8.70388 8.42551 8.36863 8.76076 7.95388 8.76076C7.53913 8.76076 7.20087 8.42551 7.20087 8.01076C7.20087 7.59601 7.53237 7.26076 7.94712 7.26076H7.95388ZM4.94728 7.26076C5.36202 7.26076 5.69728 7.59601 5.69728 8.01076C5.69728 8.42551 5.36202 8.76076 4.94728 8.76076C4.53253 8.76076 4.19352 8.42551 4.19352 8.01076C4.19352 7.59601 4.52577 7.26076 4.94053 7.26076H4.94728Z" fill="#A8A8A8"/>
</svg>
