<svg width="17" height="21" viewBox="0 0 17 21" fill="none" xmlns="http://www.w3.org/2000/svg">
<path fill-rule="evenodd" clip-rule="evenodd" d="M5.53233 18.2229C5.9236 18.6526 6.4259 18.8887 6.94708 18.8887H6.94784C7.47129 18.8887 7.97586 18.6526 8.36788 18.2221C8.57786 17.9935 8.93589 17.9748 9.16778 18.1812C9.40042 18.3875 9.41931 18.7413 9.21008 18.9699C8.59977 19.638 7.79684 20.006 6.94784 20.006H6.94633C6.09959 20.0052 5.29818 19.6373 4.69013 18.9692C4.4809 18.7405 4.49979 18.3867 4.73243 18.1812C4.96507 17.9741 5.32311 17.9927 5.53233 18.2229ZM6.9847 3.99219C10.3422 3.99219 12.5976 6.57078 12.5976 8.97881C12.5976 10.2175 12.9171 10.7426 13.2563 11.2997C13.5917 11.8494 13.9716 12.4735 13.9716 13.6533C13.708 16.6677 10.5167 16.9135 6.9847 16.9135C3.45273 16.9135 0.260673 16.6677 7.10331e-05 13.701C-0.0021849 12.4735 0.377751 11.8494 0.713121 11.2997L0.831516 11.1032C1.12302 10.6091 1.37178 10.0717 1.37178 8.97881C1.37178 6.57078 3.62722 3.99219 6.9847 3.99219ZM6.9847 5.10943C4.34479 5.10943 2.50478 7.14877 2.50478 8.97881C2.50478 10.5273 2.06895 11.2431 1.68373 11.8747C1.3748 12.3819 1.13082 12.7826 1.13082 13.6533C1.25697 15.0581 2.19736 15.7962 6.9847 15.7962C11.7456 15.7962 12.7155 15.0253 12.8408 13.6049C12.8386 12.7826 12.5946 12.3819 12.2857 11.8747C11.9004 11.2431 11.4646 10.5273 11.4646 8.97881C11.4646 7.14877 9.62461 5.10943 6.9847 5.10943Z" fill="black"/>
<ellipse cx="11.2032" cy="5.14286" rx="5.21738" ry="5.14286" fill="#E54D3A"/>
<path d="M11.0427 2.23462C11.2475 2.23462 11.4387 2.265 11.6165 2.32575C11.7942 2.3865 11.9472 2.47537 12.0755 2.59237C12.206 2.70712 12.3084 2.84775 12.3826 3.01425C12.4569 3.18075 12.494 3.36975 12.494 3.58125C12.494 3.76125 12.467 3.92775 12.413 4.08075C12.359 4.23375 12.2859 4.38112 12.1936 4.52287C12.1014 4.66237 11.9945 4.7985 11.873 4.93125C11.7537 5.06175 11.6266 5.19562 11.4916 5.33287L10.2192 6.63562C10.3092 6.61087 10.4004 6.59175 10.4926 6.57825C10.5849 6.5625 10.6737 6.55462 10.7592 6.55462H12.3792C12.4445 6.55462 12.4962 6.57375 12.5345 6.612C12.5727 6.65025 12.5919 6.69975 12.5919 6.7605V7.125H9.36537V6.91912C9.36537 6.87637 9.37324 6.8325 9.38899 6.7875C9.40699 6.7425 9.43512 6.70087 9.47337 6.66262L11.0225 5.10675C11.1507 4.97625 11.2677 4.85137 11.3735 4.73212C11.4792 4.61062 11.5692 4.48912 11.6435 4.36762C11.72 4.24612 11.7785 4.1235 11.819 3.99975C11.8595 3.87375 11.8797 3.73987 11.8797 3.59812C11.8797 3.45637 11.8572 3.33262 11.8122 3.22687C11.7672 3.11887 11.7054 3.03 11.6266 2.96025C11.5479 2.8905 11.4556 2.83875 11.3499 2.805C11.2441 2.769 11.1305 2.751 11.009 2.751C10.8875 2.751 10.775 2.769 10.6715 2.805C10.568 2.841 10.4757 2.89162 10.3947 2.95687C10.316 3.01987 10.2485 3.09525 10.1922 3.183C10.1382 3.27075 10.1 3.3675 10.0775 3.47325C10.0595 3.5385 10.0325 3.58575 9.99649 3.615C9.96049 3.64425 9.91324 3.65887 9.85474 3.65887C9.84349 3.65887 9.83112 3.65887 9.81762 3.65887C9.80637 3.65662 9.79287 3.65437 9.77712 3.65212L9.46324 3.59812C9.49474 3.37762 9.55549 3.183 9.64549 3.01425C9.73549 2.84325 9.84912 2.70037 9.98637 2.58562C10.1259 2.47087 10.2845 2.38425 10.4622 2.32575C10.6422 2.265 10.8357 2.23462 11.0427 2.23462Z" fill="white"/>
</svg>
