<svg width="14" height="18" viewBox="0 0 14 18" fill="none" xmlns="http://www.w3.org/2000/svg">
<path fill-rule="evenodd" clip-rule="evenodd" d="M5.53233 15.2229C5.9236 15.6526 6.4259 15.8887 6.94708 15.8887H6.94784C7.47129 15.8887 7.97586 15.6526 8.36788 15.2221C8.57786 14.9935 8.93589 14.9748 9.16778 15.1812C9.40042 15.3875 9.41931 15.7413 9.21008 15.9699C8.59977 16.638 7.79684 17.006 6.94784 17.006H6.94633C6.09959 17.0052 5.29818 16.6373 4.69013 15.9692C4.4809 15.7405 4.49979 15.3867 4.73243 15.1812C4.96507 14.9741 5.32311 14.9927 5.53233 15.2229ZM6.9847 0.992188C10.3422 0.992188 12.5976 3.57078 12.5976 5.97881C12.5976 7.21746 12.9171 7.74256 13.2563 8.29969C13.5917 8.84937 13.9716 9.47354 13.9716 10.6533C13.708 13.6677 10.5167 13.9135 6.9847 13.9135C3.45273 13.9135 0.260673 13.6677 7.10331e-05 10.701C-0.0021849 9.47354 0.377751 8.84937 0.713121 8.29969L0.831516 8.10317C1.12302 7.60913 1.37178 7.07173 1.37178 5.97881C1.37178 3.57078 3.62722 0.992188 6.9847 0.992188ZM6.9847 2.10943C4.34479 2.10943 2.50478 4.14877 2.50478 5.97881C2.50478 7.52731 2.06895 8.24308 1.68373 8.8747C1.3748 9.38193 1.13082 9.78264 1.13082 10.6533C1.25697 12.0581 2.19736 12.7962 6.9847 12.7962C11.7456 12.7962 12.7155 12.0253 12.8408 10.6049C12.8386 9.78264 12.5946 9.38193 12.2857 8.8747C11.9004 8.24308 11.4646 7.52731 11.4646 5.97881C11.4646 4.14877 9.62461 2.10943 6.9847 2.10943Z" fill="black"/>
</svg>
