<svg width="13" height="15" viewBox="0 0 13 15" fill="none" xmlns="http://www.w3.org/2000/svg">
<path fill-rule="evenodd" clip-rule="evenodd" d="M6.42831 0.251953C9.84006 0.251953 12.6158 3.0487 12.6158 6.4867C12.6158 10.713 7.77381 14.877 6.42831 14.877C5.08281 14.877 0.240814 10.713 0.240814 6.4867C0.240814 3.0487 3.01656 0.251953 6.42831 0.251953ZM6.42831 1.37695C3.63681 1.37695 1.36581 3.6697 1.36581 6.4867C1.36581 10.071 5.58381 13.563 6.42831 13.749C7.27281 13.5622 11.4908 10.0702 11.4908 6.4867C11.4908 3.6697 9.21981 1.37695 6.42831 1.37695ZM6.42906 4.00195C7.77306 4.00195 8.86656 5.09545 8.86656 6.4402C8.86656 7.7842 7.77306 8.87695 6.42906 8.87695C5.08506 8.87695 3.99156 7.7842 3.99156 6.4402C3.99156 5.09545 5.08506 4.00195 6.42906 4.00195ZM6.42906 5.12695C5.70531 5.12695 5.11656 5.7157 5.11656 6.4402C5.11656 7.16395 5.70531 7.75195 6.42906 7.75195C7.15281 7.75195 7.74156 7.16395 7.74156 6.4402C7.74156 5.7157 7.15281 5.12695 6.42906 5.12695Z" fill="#A8A8A8"/>
</svg>
