<svg width="18" height="18" viewBox="0 0 18 18" fill="none" xmlns="http://www.w3.org/2000/svg">
<path fill-rule="evenodd" clip-rule="evenodd" d="M14.8798 13.6448C14.8798 16.1168 11.4898 16.4026 8.94055 16.4026L8.75813 16.4024C7.13396 16.3985 2.9998 16.2959 2.9998 13.6298C2.9998 11.2083 6.25357 10.8846 8.78342 10.8724L9.12297 10.8722C10.747 10.8762 14.8798 10.9787 14.8798 13.6448ZM8.94055 11.9971C5.7448 11.9971 4.1248 12.5461 4.1248 13.6298C4.1248 14.7233 5.7448 15.2776 8.94055 15.2776C12.1356 15.2776 13.7548 14.7286 13.7548 13.6448C13.7548 12.5513 12.1356 11.9971 8.94055 11.9971ZM8.94055 1.49976C11.1366 1.49976 12.9223 3.28626 12.9223 5.48226C12.9223 7.67826 11.1366 9.46401 8.94055 9.46401H8.91655C6.72505 9.45726 4.9498 7.67001 4.95728 5.48001C4.95728 3.28626 6.7438 1.49976 8.94055 1.49976ZM8.94055 2.57076C7.3348 2.57076 6.02829 3.87651 6.02829 5.48226C6.02305 7.08276 7.3198 8.38776 8.9188 8.39376L8.94055 8.92926V8.39376C10.5456 8.39376 11.8513 7.08726 11.8513 5.48226C11.8513 3.87651 10.5456 2.57076 8.94055 2.57076Z" fill="#2C2929"/>
</svg>
