<svg width="10" height="11" viewBox="0 0 10 11" fill="none" xmlns="http://www.w3.org/2000/svg">
<g clip-path="url(#clip0)">
<path d="M0.552997 5.66563L2.03633 6.74896L1.473 8.49355C1.38196 8.76413 1.38081 9.05688 1.46971 9.32817C1.55861 9.59945 1.73281 9.83475 1.96633 9.99896C2.19585 10.1685 2.47399 10.2593 2.75931 10.2578C3.04463 10.2564 3.32185 10.1628 3.54966 9.99105L5.00008 8.92355L6.45091 9.9898C6.68002 10.1583 6.95666 10.2499 7.24107 10.2512C7.52547 10.2526 7.803 10.1638 8.03373 9.99751C8.26447 9.83123 8.43654 9.59606 8.5252 9.32583C8.61386 9.05559 8.61455 8.7642 8.52716 8.49355L7.96383 6.74896L9.44716 5.66563C9.67597 5.49834 9.84606 5.26303 9.93314 4.99329C10.0202 4.72356 10.0198 4.43321 9.93203 4.16371C9.84423 3.89421 9.67351 3.65935 9.44426 3.49267C9.215 3.326 8.93894 3.23603 8.6555 3.23563H6.83341L6.2805 1.5123C6.19355 1.24103 6.02269 1.00439 5.79257 0.836491C5.56244 0.668596 5.28494 0.578125 5.00008 0.578125C4.71522 0.578125 4.43772 0.668596 4.20759 0.836491C3.97747 1.00439 3.80661 1.24103 3.71966 1.5123L3.16675 3.23563H1.34633C1.06289 3.23603 0.786827 3.326 0.557572 3.49267C0.328317 3.65935 0.157597 3.89421 0.0697976 4.16371C-0.0180021 4.43321 -0.0183907 4.72356 0.0686873 4.99329C0.155765 5.26303 0.325856 5.49834 0.554664 5.66563H0.552997Z" fill="#FBBC04"/>
</g>
<defs>
<clipPath id="clip0">
<rect width="10" height="10" fill="white" transform="translate(0 0.5)"/>
</clipPath>
</defs>
</svg>
